<svg width="500" height="500" viewBox="0 0 500 500" fill="none" xmlns="http://www.w3.org/2000/svg">
<path fill-rule="evenodd" clip-rule="evenodd" d="M185.36 8.07893C11.6784 53.5867 -59.0191 273.947 56.607 409.408C200.673 578.187 470.17 497.882 497.703 277.968C519.115 106.94 353.665 -36.0184 185.36 8.07893ZM296.291 20.1764C444.656 50.323 526.358 214.649 460.477 350.409C351.668 574.63 16.5161 498.761 16.5161 249.909C16.5161 99.8065 149.752 -9.59885 296.291 20.1764ZM303.813 132.805L247.601 170.705L243.67 155.702C227.273 93.102 143.647 99.6702 143.708 163.551C143.742 199.131 184.808 223.82 216.477 207.304C221.846 204.504 227.031 202.214 227.999 202.214C230.956 202.214 225.215 349.53 221.734 363.001C214.811 389.792 183.138 398.895 163.873 379.629C141.654 357.41 158.684 322.205 189.948 325.731C209.159 327.894 218.954 317.18 203.228 311.201C145.885 289.397 109.828 371.48 164.081 400.312C187.87 412.954 219.26 405.528 232.489 384.126C240.205 371.64 245.319 313.04 245.987 229.469L246.3 190.291L285.778 164.74C307.489 150.687 329.838 136.222 335.445 132.593L345.635 126.001L344.02 214.356C342.174 315.381 340.743 321.687 318.108 328.466C282.293 339.198 255.658 298.187 282.235 273.229C289.079 266.8 294.002 265.379 307.448 265.955C326.588 266.776 338.695 256.157 323.32 252.035C280.596 240.582 245.779 270.507 256.527 309.439C268.921 354.313 333.227 360.667 353.484 319.016C359.405 306.84 365.578 134.678 361.214 103.418C360.076 95.2653 357.61 96.5292 303.813 132.805ZM214.59 134.951C230.183 147.883 233.17 178.169 219.72 186.983C192.851 204.585 160.637 191.173 160.803 162.447C160.967 134.617 193.89 117.784 214.59 134.951Z" fill="black"/>
</svg>
